Coordinates
version=1
nRows=14
nColumns=63
inDegrees=yes

Units are S.I. units (second, meters, Newtons, ...)
If the header above contains a line with 'inDegrees', this indicates whether rotational values are in degrees (yes) or radians (no).

endheader
time	pelvis_tilt	pelvis_list	pelvis_rotation	pelvis_tx	pelvis_ty	pelvis_tz	hip_flexion_r	hip_adduction_r	hip_rotation_r	knee_angle_r	knee_angle_r_beta	ankle_angle_r	subtalar_angle_r	mtp_angle_r	hip_flexion_l	hip_adduction_l	hip_rotation_l	knee_angle_l	knee_angle_l_beta	ankle_angle_l	subtalar_angle_l	mtp_angle_l	L5_S1_Flex_Ext	L5_S1_Lat_Bending	L5_S1_axial_rotation	L4_L5_Flex_Ext	L4_L5_Lat_Bending	L4_L5_axial_rotation	L3_L4_Flex_Ext	L3_L4_Lat_Bending	L3_L4_axial_rotation	L2_L3_Flex_Ext	L2_L3_Lat_Bending	L2_L3_axial_rotation	L1_L2_Flex_Ext	L1_L2_Lat_Bending	L1_L2_axial_rotation	L1_T12_Flex_Ext	L1_T12_Lat_Bending	L1_T12_axial_rotation	Abs_r3	Abs_r2	Abs_r1	Abs_t1	Abs_t2	neck_flexion	neck_bending	neck_rotation	arm_flex_r	arm_add_r	arm_rot_r	elbow_flex_r	pro_sup_r	wrist_flex_r	wrist_dev_r	arm_flex_l	arm_add_l	arm_rot_l	elbow_flex_l	pro_sup_l	wrist_flex_l	wrist_dev_l
4.423729	0.850963	-3.879901	105.453839	0.166000	0.494512	0.927700	-3.424860	3.535218	-15.453420	7.638110	0.133310	42.892498	8.966528	0.000000	-0.082323	0.879439	10.158361	12.430166	0.216947	40.618244	-3.547707	0.000000	0.145555	0.164931	-2.447605	0.270310	0.219358	-2.600581	0.239133	0.401012	-2.600581	0.166355	0.401012	-2.141655	0.135163	0.336327	-1.988679	0.083170	0.255478	-1.835704	1.039686	1.865729	-13.612846	0.000000	0.000000	22.947308	1.643625	2.158528	-25.523799	-34.130654	38.558532	83.331047	58.993773	69.426854	-23.265425	-39.509649	-3.921487	0.404761	87.477938	0.179564	-69.441948	34.819519
4.440678	0.915840	-3.951755	105.653034	0.165520	0.494295	0.928315	-3.228268	3.545936	-15.567740	7.836126	0.136766	42.933854	8.781734	0.000000	0.019335	0.846655	10.279861	12.422429	0.216812	40.362426	-3.657275	0.000000	0.155327	0.162990	-2.416788	0.288458	0.216777	-2.567837	0.255187	0.396294	-2.567837	0.177523	0.396294	-2.114689	0.144237	0.332369	-1.963640	0.088754	0.252471	-1.812591	1.109486	1.843775	-13.441450	0.000000	0.000000	23.722268	1.634564	1.360311	-25.565218	-34.001854	38.667295	83.050684	60.425503	69.358300	-23.324532	-39.348257	-3.860671	0.183806	87.590886	0.179523	-69.437675	34.818796
4.457627	0.973611	-4.023202	105.815046	0.165098	0.494061	0.929014	-3.024394	3.531746	-15.894237	8.035402	0.140244	43.050483	8.923095	0.000000	0.108861	0.815619	10.329097	12.379255	0.216059	40.162888	-3.691568	0.000000	0.163314	0.159944	-2.377409	0.303291	0.212725	-2.525997	0.268309	0.388887	-2.525997	0.186652	0.388887	-2.080233	0.151653	0.326157	-1.931645	0.093318	0.247753	-1.783057	1.166536	1.809314	-13.222437	0.000000	0.000000	24.429194	1.608446	0.528003	-25.579617	-33.825179	38.885808	82.689869	61.816242	69.288211	-23.426652	-39.210913	-3.724692	-0.140308	87.717190	0.179250	-69.433040	34.818278
4.474576	1.026953	-4.082775	105.918400	0.164776	0.493822	0.929793	-2.830272	3.514374	-16.148220	8.214308	0.143367	43.188659	9.072956	0.000000	0.182074	0.768051	10.158034	12.317173	0.214975	40.053787	-3.492177	0.000000	0.167580	0.156687	-2.324227	0.311214	0.208393	-2.469491	0.275318	0.380968	-2.469491	0.191528	0.380968	-2.033699	0.155615	0.319516	-1.888434	0.095755	0.242708	-1.743170	1.197011	1.772473	-12.926653	0.000000	0.000000	24.968382	1.526405	-0.330289	-25.643168	-33.563788	39.036265	82.299965	63.196804	69.225514	-23.510814	-39.082263	-3.544567	-0.515249	87.862046	0.178659	-69.429823	34.818038
4.491525	1.075673	-4.130921	105.983760	0.164534	0.493582	0.930655	-2.647896	3.490632	-16.440280	8.374753	0.146167	43.356099	9.340259	0.000000	0.241412	0.707713	9.835018	12.240706	0.213641	40.020042	-3.112970	0.000000	0.168116	0.153620	-2.269251	0.312209	0.204314	-2.411080	0.276199	0.373511	-2.411080	0.192140	0.373511	-1.985595	0.156113	0.313261	-1.843767	0.096062	0.237957	-1.701939	1.200839	1.737777	-12.620895	0.000000	0.000000	25.260084	1.417830	-1.112520	-25.725686	-33.237511	39.076305	81.903962	64.688566	69.176448	-23.488954	-38.975257	-3.306739	-0.949838	88.025924	0.177711	-69.429378	34.818180
4.508475	1.122726	-4.166706	105.995413	0.164358	0.493351	0.931592	-2.474146	3.459157	-16.765639	8.527151	0.148827	43.546046	9.724622	0.000000	0.278080	0.646805	9.480890	12.143231	0.211939	40.006804	-2.731859	0.000000	0.164571	0.152252	-2.212572	0.305624	0.202496	-2.350858	0.270373	0.370187	-2.350858	0.188088	0.370187	-1.936000	0.152820	0.310473	-1.797715	0.094036	0.235839	-1.659429	1.175512	1.722311	-12.305661	0.000000	0.000000	25.269406	1.297331	-1.737482	-25.832477	-32.865296	38.964493	81.511622	66.354190	69.144601	-23.379110	-38.874489	-3.040582	-1.387938	88.195701	0.176463	-69.432467	34.818683
4.525424	1.171530	-4.190493	105.941573	0.164257	0.493135	0.932583	-2.309584	3.431065	-16.975235	8.668953	0.151302	43.716203	10.047955	0.000000	0.288955	0.587900	9.133681	12.027671	0.209922	39.966792	-2.432719	0.000000	0.156644	0.153649	-2.158466	0.290904	0.204354	-2.293370	0.257350	0.373583	-2.293370	0.179028	0.373583	-1.888657	0.145460	0.313322	-1.753753	0.089506	0.238003	-1.618849	1.118893	1.738113	-12.004738	0.000000	0.000000	25.022493	1.197963	-2.137661	-25.896264	-32.500186	38.799731	81.116552	68.165965	69.141360	-23.220974	-38.777663	-2.758947	-1.801848	88.357113	0.174954	-69.438738	34.819563
4.542373	1.224385	-4.205611	105.840254	0.164218	0.492934	0.933608	-2.153474	3.407674	-17.133830	8.803520	0.153650	43.862242	10.356817	0.000000	0.290361	0.515219	8.663965	11.918940	0.208025	39.921837	-2.033807	0.000000	0.145378	0.158029	-2.118996	0.269981	0.210179	-2.251433	0.238841	0.384232	-2.251433	0.166152	0.384232	-1.854121	0.134998	0.322253	-1.721684	0.083069	0.244787	-1.589247	1.038418	1.787657	-11.785218	0.000000	0.000000	24.564684	1.189002	-2.224404	-25.775324	-32.210881	38.825694	80.696993	69.970137	69.170632	-23.053095	-38.694617	-2.474530	-2.174156	88.496696	0.173498	-69.446881	34.820580
4.559322	1.281625	-4.219996	105.693414	0.164229	0.492737	0.934630	-1.998831	3.383071	-17.304908	8.938631	0.156009	43.986426	10.716605	0.000000	0.285135	0.439663	8.179683	11.815774	0.206224	39.837887	-1.657901	0.000000	0.132574	0.165543	-2.093880	0.246202	0.220172	-2.224748	0.217805	0.402502	-2.224748	0.151518	0.402502	-1.832145	0.123108	0.337576	-1.701278	0.075753	0.256426	-1.570410	0.946960	1.872657	-11.645533	0.000000	0.000000	23.990490	1.265170	-2.016958	-25.428695	-32.024109	39.122459	80.256064	71.733649	69.222086	-22.898482	-38.620402	-2.211706	-2.468086	88.594360	0.172306	-69.454686	34.821552
4.576271	1.344316	-4.236976	105.503275	0.164284	0.492539	0.935599	-1.840698	3.358809	-17.467013	9.082731	0.158524	44.090642	11.095407	0.000000	0.271068	0.365360	7.729268	11.714222	0.204452	39.713021	-1.361028	0.000000	0.119670	0.176044	-2.082777	0.222240	0.234138	-2.212951	0.196606	0.428032	-2.212951	0.136771	0.428032	-1.822430	0.111126	0.358988	-1.692256	0.068380	0.272691	-1.562083	0.854794	1.991440	-11.583781	0.000000	0.000000	23.388707	1.418491	-1.554843	-24.852984	-31.957664	39.742844	79.818365	73.295080	69.214941	-22.761710	-38.554319	-1.984825	-2.664487	88.637657	0.171563	-69.460110	34.822326
4.593220	1.411971	-4.258311	105.302320	0.164351	0.492336	0.936466	-1.691486	3.347509	-17.542281	9.208160	0.160713	44.150016	11.363506	0.000000	0.259712	0.281763	7.245916	11.628535	0.202956	39.602887	-0.999725	0.000000	0.107707	0.188721	-2.087482	0.200023	0.250999	-2.217950	0.176952	0.458856	-2.217950	0.123098	0.458856	-1.826547	0.100017	0.384840	-1.696079	0.061544	0.292329	-1.565612	0.769340	2.134851	-11.609951	0.000000	0.000000	22.841412	1.624542	-0.920991	-24.136868	-31.995113	40.562853	79.424333	74.658036	69.162244	-22.659889	-38.504783	-1.778961	-2.794384	88.627897	0.171334	-69.462016	34.822777
4.610169	1.483334	-4.282632	105.077804	0.164474	0.492155	0.937219	-1.541422	3.345901	-17.548469	9.336088	0.162945	44.186280	11.570714	0.000000	0.244196	0.199421	6.823405	11.546018	0.201516	39.510596	-0.712951	0.000000	0.096886	0.202595	-2.107958	0.179927	0.269452	-2.239705	0.159174	0.492591	-2.239705	0.110731	0.492591	-1.844463	0.089968	0.413133	-1.712715	0.055361	0.313820	-1.580968	0.692046	2.291800	-11.723827	0.000000	0.000000	22.373924	1.875188	-0.155696	-23.165911	-32.177619	41.803887	79.051592	75.742547	68.940068	-22.735415	-38.472169	-1.604843	-2.859470	88.567199	0.171571	-69.461129	34.822932
4.627119	1.557283	-4.310718	104.869931	0.164591	0.491995	0.937826	-1.404513	3.362857	-17.451059	9.436458	0.164697	44.184453	11.634462	0.000000	0.235512	0.115195	6.455130	11.474779	0.200273	39.471621	-0.435898	0.000000	0.087877	0.216865	-2.137490	0.163196	0.288431	-2.271083	0.144373	0.527286	-2.271083	0.100434	0.527286	-1.870303	0.081602	0.442231	-1.736710	0.050213	0.335924	-1.603117	0.627695	2.453222	-11.888076	0.000000	0.000000	22.023690	2.111048	0.621798	-22.193995	-32.413962	43.041598	78.727038	76.806114	68.708913	-22.972972	-38.449909	-1.452384	-2.890790	88.474830	0.172095	-69.459465	34.822887
4.644068	1.626513	-4.346452	104.668070	0.164712	0.491864	0.938276	-1.277043	3.384194	-17.296209	9.513668	0.166045	44.158707	11.633732	0.000000	0.235030	0.037856	6.120463	11.404494	0.199046	39.487736	-0.164928	0.000000	0.081131	0.230083	-2.167316	0.150669	0.306010	-2.302773	0.133291	0.559423	-2.302773	0.092725	0.559423	-1.896402	0.075339	0.469185	-1.760944	0.046358	0.356398	-1.625487	0.579514	2.602741	-12.053962	0.000000	0.000000	21.798093	2.294915	1.317582	-21.319787	-32.656151	44.104256	78.462576	77.872394	68.503956	-23.176056	-38.432880	-1.324617	-2.900569	88.369052	0.172702	-69.459493	34.822796
